<?xml version="1.0" encoding="utf-8"?>
<!-- Generator: Adobe Illustrator 16.0.0, SVG Export Plug-In . SVG Version: 6.00 Build 0)  -->
<!DOCTYPE svg PUBLIC "-//W3C//DTD SVG 1.1//EN" "http://www.w3.org/Graphics/SVG/1.1/DTD/svg11.dtd">
<svg version="1.1" id="Layer_1" xmlns="http://www.w3.org/2000/svg" xmlns:xlink="http://www.w3.org/1999/xlink" x="0px" y="0px"
	 width="48.586px" height="48.518px" viewBox="0 0 48.586 48.518" enable-background="new 0 0 48.586 48.518" xml:space="preserve">
<g>
	<path fill="#24529D" d="M24.292,0c-3.607,0-7.027,0.785-10.105,2.195l0.896,14.115c0.377-0.049,0.672-0.057,0.713,0.002
		c0.117,0.166,0.566,1.27,0.613,1.471c0.027,0.119-0.027,0.254-0.117,0.391c0.43,0.123,1.205,0.342,1.23,0.342
		c0,0,2.18-2.947,2.811-3.312c0.166-0.096,1.902-0.877,2.623-1.199c0.074-0.082,0.123-0.162,0.131-0.238
		c0.031-0.273,0.188-1.568,0.221-1.885c0.025-0.229,0.517-0.662,0.619-1.004c0.1-0.34,0.074-2.027,0.111-2.178
		c0.061-0.256,1.48-1.203,1.828-1.434c0.213-0.143,1.818-0.074,2.037-0.033c0.697,0.131,1.287,0.758,1.293,0.98
		c0.006,0.221-0.072,2.508-0.072,2.508c0,0.201,0.791,1.473,0.791,1.865c0,0.389-0.082,1.293-0.082,1.488
		c0,0.055,0.047,0.188,0.109,0.354c0.496,0.299,2.301,1.391,2.611,1.586c0.362,0.227,1.504,5.441,1.504,5.441l1.502,2.928
		c0,0,0.434-0.118,0.537-0.037c0.108,0.078,0.233,3.474,0.233,3.474c0,0.002,0,0.002,0,0.002c0.192,0.381,0.683,1.369,0.683,1.67
		c0,0.359-0.361,0.672-0.765,0.908c0.01,0.063,0.017,0.129,0.017,0.194c-0.005,0.324-0.117,0.617-0.3,0.837
		c0.55,0.27,1.472,0.733,1.472,0.797c0,0.211,0.022,0.395-0.008,5.27c0,0-0.605,0.486-0.656,0.486c-0.035,0-2.058-0.117-3.336-0.203
		c0.09,0.949,0.137,1.723,0.08,1.955c-0.574,0.283-2.076,0.438-3.084,0.512c-0.209,0.754-0.875,3.105-1.048,3.094
		c-0.209-0.01-0.413-0.006-0.413-0.006s-1.263,1.807-1.271,1.973c-0.009,0.168,0.473,1.715,0.473,1.715l1.216,1.027
		c10.969-2.342,19.196-12.088,19.196-23.758C48.587,10.877,37.71,0,24.292,0z M30.524,22.832h-0.053
		c0.026,0.643,0.079,1.744,0.079,1.744l0.513,0.906c0.176,0.295,1.528,6.731,1.528,6.731l1.697-0.848
		c-0.158-0.216-0.248-0.49-0.244-0.789c0-0.125,0.017-0.246,0.05-0.359c-0.064-0.01-0.478-0.063-0.552-0.188
		c-0.073-0.127-0.108-1.465,0.052-1.784c-0.025-0.058-0.062-0.123-0.125-0.201c-0.238-0.312-1.22-1.396-1.203-1.578
		c0.012-0.168,0.188-0.387,0.188-0.387L30.524,22.832z M21.769,42.137c-0.026-0.102-0.199-1.65-0.239-2.039
		c-1.81-0.154-2.677-0.32-2.904-0.596c-0.25-0.303,2.082-14.461,2.256-14.713c0.115-0.162,0.685-0.598,0.742-0.75
		c0.056-0.135,0.015-3.057,0.004-3.783h-0.084c-0.11,0-3.187,3.008-4.18,2.902c-0.72-0.074-1.5-0.496-1.894-0.736l1.59,25.072
		c1.722,0.535,3.523,0.883,5.385,1.023l0.525-0.857l0.019-1.361l-0.736-3.922C22.251,42.377,21.798,42.256,21.769,42.137z
		 M35.181,37.205l0.017-0.039l-0.759-1.395h-0.03l-0.769,1.297l0.008,0.031L35.181,37.205z M33.556,32.791l-0.021,0.045l0.836,1.617
		h0.043l0.912-1.588l-0.021-0.037L33.556,32.791z M32.862,33.082l-0.031,0.027l0.102,3.842l0.033,0.027l0.975-1.816l-0.002-0.051
		L32.862,33.082z M36.11,37.129l-0.027-4.164l-0.031-0.029l-1.17,2.162l0.004,0.039l1.199,2.023L36.11,37.129z"/>
	<g>
		<path fill="#1A3E6F" d="M13.155,20.772c-0.311-0.277-0.844-1.531-0.816-2.246c0.029-0.688,0.475-1.498,0.631-1.744
			c0.035-0.057,0.182-0.121,0.387-0.184L12.5,3.063C5.047,7.211,0,15.159,0,24.293C0,34.525,6.328,43.27,15.276,46.852l-1.639-25.83
			C13.458,20.961,13.284,20.885,13.155,20.772z"/>
	</g>
</g>
</svg>
